<mxfile host="app.diagrams.net" modified="2024-06-18T19:21:35.318Z" agent="Mozilla/5.0 (Macintosh; Intel Mac OS X 10_15_7) AppleWebKit/605.1.15 (KHTML, like Gecko) Version/17.5 Safari/605.1.15" version="24.5.5" etag="uyqN_TT3Th3mASoU45KJ" type="github">
  <diagram name="Page-1" id="eKv29D9kbagR9nkXhiFp">
    <mxGraphModel>
      <root>
        <mxCell id="0" />
        <mxCell id="1" parent="0" />
      </root>
    </mxGraphModel>
  </diagram>
</mxfile>
